<mxfile host="app.diagrams.net" modified="2023-07-24T10:51:39.652Z" agent="Mozilla/5.0 (Windows NT 10.0; Win64; x64) AppleWebKit/537.36 (KHTML, like Gecko) Chrome/114.0.0.0 Safari/537.36" etag="qZ0CDTxhQ56dsfzz9_It" version="21.6.5" type="device">
  <diagram name="Page-1" id="2C0g_hmjmGTa55idOTdt">
    <mxGraphModel dx="4037" dy="2742" grid="1" gridSize="10" guides="1" tooltips="1" connect="1" arrows="1" fold="1" page="1" pageScale="1" pageWidth="850" pageHeight="1100" math="0" shadow="0">
      <root>
        <mxCell id="0" />
        <mxCell id="1" parent="0" />
        <mxCell id="hN9CqaOS5fhVVAMX-T8h-3" value="" style="edgeStyle=orthogonalEdgeStyle;rounded=0;orthogonalLoop=1;jettySize=auto;html=1;" parent="1" source="hN9CqaOS5fhVVAMX-T8h-1" target="hN9CqaOS5fhVVAMX-T8h-2" edge="1">
          <mxGeometry relative="1" as="geometry" />
        </mxCell>
        <mxCell id="hN9CqaOS5fhVVAMX-T8h-1" value="START" style="ellipse;whiteSpace=wrap;html=1;" parent="1" vertex="1">
          <mxGeometry x="-211.25" y="-80" width="135" height="60" as="geometry" />
        </mxCell>
        <mxCell id="hN9CqaOS5fhVVAMX-T8h-18" value="" style="edgeStyle=orthogonalEdgeStyle;rounded=0;orthogonalLoop=1;jettySize=auto;html=1;" parent="1" source="hN9CqaOS5fhVVAMX-T8h-2" target="hN9CqaOS5fhVVAMX-T8h-4" edge="1">
          <mxGeometry relative="1" as="geometry" />
        </mxCell>
        <mxCell id="hN9CqaOS5fhVVAMX-T8h-2" value="&lt;font style=&quot;font-size: 16px;&quot;&gt;Identify Job opening&lt;/font&gt;" style="rounded=1;whiteSpace=wrap;html=1;fillColor=#25ea1a;strokeColor=#82b366;" parent="1" vertex="1">
          <mxGeometry x="-288.75" y="10" width="290" height="60" as="geometry" />
        </mxCell>
        <mxCell id="gNrCj74a_SLX_d9sAi6l-28" style="edgeStyle=orthogonalEdgeStyle;rounded=0;orthogonalLoop=1;jettySize=auto;html=1;entryX=0.5;entryY=0;entryDx=0;entryDy=0;" edge="1" parent="1" source="hN9CqaOS5fhVVAMX-T8h-4" target="hN9CqaOS5fhVVAMX-T8h-5">
          <mxGeometry relative="1" as="geometry" />
        </mxCell>
        <mxCell id="hN9CqaOS5fhVVAMX-T8h-4" value="&lt;font style=&quot;font-size: 16px;&quot;&gt;Define job requirement&lt;/font&gt;" style="rounded=1;whiteSpace=wrap;html=1;fillColor=#dae8fc;strokeColor=#6c8ebf;" parent="1" vertex="1">
          <mxGeometry x="-288.75" y="100" width="290" height="60" as="geometry" />
        </mxCell>
        <mxCell id="gNrCj74a_SLX_d9sAi6l-31" value="" style="edgeStyle=orthogonalEdgeStyle;rounded=0;orthogonalLoop=1;jettySize=auto;html=1;" edge="1" parent="1" source="hN9CqaOS5fhVVAMX-T8h-5" target="hN9CqaOS5fhVVAMX-T8h-6">
          <mxGeometry relative="1" as="geometry" />
        </mxCell>
        <mxCell id="hN9CqaOS5fhVVAMX-T8h-5" value="&lt;font style=&quot;font-size: 16px;&quot;&gt;Post Job advertisement&lt;/font&gt;" style="rounded=1;whiteSpace=wrap;html=1;fillColor=#dae8fc;strokeColor=#6c8ebf;fillStyle=auto;" parent="1" vertex="1">
          <mxGeometry x="-290" y="190" width="292.5" height="60" as="geometry" />
        </mxCell>
        <mxCell id="hN9CqaOS5fhVVAMX-T8h-23" value="" style="edgeStyle=orthogonalEdgeStyle;rounded=0;orthogonalLoop=1;jettySize=auto;html=1;" parent="1" source="hN9CqaOS5fhVVAMX-T8h-6" target="hN9CqaOS5fhVVAMX-T8h-7" edge="1">
          <mxGeometry relative="1" as="geometry" />
        </mxCell>
        <mxCell id="hN9CqaOS5fhVVAMX-T8h-6" value="&lt;font style=&quot;font-size: 16px;&quot;&gt;Job Application Receive&lt;/font&gt;" style="rounded=1;whiteSpace=wrap;html=1;fillColor=#dae8fc;strokeColor=#6c8ebf;" parent="1" vertex="1">
          <mxGeometry x="-288.75" y="280" width="290" height="60" as="geometry" />
        </mxCell>
        <mxCell id="gNrCj74a_SLX_d9sAi6l-54" value="" style="edgeStyle=orthogonalEdgeStyle;rounded=0;orthogonalLoop=1;jettySize=auto;html=1;" edge="1" parent="1" source="hN9CqaOS5fhVVAMX-T8h-7" target="hN9CqaOS5fhVVAMX-T8h-8">
          <mxGeometry relative="1" as="geometry" />
        </mxCell>
        <mxCell id="gNrCj74a_SLX_d9sAi6l-56" value="" style="edgeStyle=orthogonalEdgeStyle;rounded=0;orthogonalLoop=1;jettySize=auto;html=1;" edge="1" parent="1" source="hN9CqaOS5fhVVAMX-T8h-7" target="gNrCj74a_SLX_d9sAi6l-55">
          <mxGeometry relative="1" as="geometry" />
        </mxCell>
        <mxCell id="hN9CqaOS5fhVVAMX-T8h-7" value="&lt;font style=&quot;font-size: 16px;&quot;&gt;Review Application&lt;/font&gt;" style="rhombus;whiteSpace=wrap;html=1;fillColor=#f8cecc;strokeColor=#b85450;" parent="1" vertex="1">
          <mxGeometry x="60" y="240" width="270" height="140" as="geometry" />
        </mxCell>
        <mxCell id="hN9CqaOS5fhVVAMX-T8h-8" value="&lt;font style=&quot;font-size: 16px;&quot;&gt;Application rejected&lt;/font&gt;" style="rounded=1;whiteSpace=wrap;html=1;fillColor=#dae8fc;strokeColor=#6c8ebf;" parent="1" vertex="1">
          <mxGeometry x="432.5" y="280" width="250" height="60" as="geometry" />
        </mxCell>
        <mxCell id="gNrCj74a_SLX_d9sAi6l-66" value="" style="edgeStyle=orthogonalEdgeStyle;rounded=0;orthogonalLoop=1;jettySize=auto;html=1;" edge="1" parent="1" source="hN9CqaOS5fhVVAMX-T8h-9" target="gNrCj74a_SLX_d9sAi6l-64">
          <mxGeometry relative="1" as="geometry" />
        </mxCell>
        <mxCell id="hN9CqaOS5fhVVAMX-T8h-9" value="&lt;font style=&quot;font-size: 16px;&quot;&gt;Conduct Interview&lt;/font&gt;" style="rounded=1;whiteSpace=wrap;html=1;fillColor=#dae8fc;strokeColor=#6c8ebf;" parent="1" vertex="1">
          <mxGeometry x="345" y="570" width="225" height="60" as="geometry" />
        </mxCell>
        <mxCell id="hN9CqaOS5fhVVAMX-T8h-12" value="&lt;font style=&quot;font-size: 16px;&quot;&gt;Not Up to the mark&lt;/font&gt;" style="rounded=1;whiteSpace=wrap;html=1;fillColor=#dae8fc;strokeColor=#6c8ebf;" parent="1" vertex="1">
          <mxGeometry x="1147.5" y="700" width="195" height="60" as="geometry" />
        </mxCell>
        <mxCell id="hN9CqaOS5fhVVAMX-T8h-29" value="" style="edgeStyle=orthogonalEdgeStyle;rounded=0;orthogonalLoop=1;jettySize=auto;html=1;" parent="1" source="hN9CqaOS5fhVVAMX-T8h-13" target="hN9CqaOS5fhVVAMX-T8h-12" edge="1">
          <mxGeometry relative="1" as="geometry" />
        </mxCell>
        <mxCell id="gNrCj74a_SLX_d9sAi6l-75" value="" style="edgeStyle=orthogonalEdgeStyle;rounded=0;orthogonalLoop=1;jettySize=auto;html=1;" edge="1" parent="1" source="hN9CqaOS5fhVVAMX-T8h-13" target="gNrCj74a_SLX_d9sAi6l-73">
          <mxGeometry relative="1" as="geometry" />
        </mxCell>
        <mxCell id="hN9CqaOS5fhVVAMX-T8h-13" value="&lt;font style=&quot;font-size: 16px;&quot;&gt;Reference Check&lt;/font&gt;" style="rhombus;whiteSpace=wrap;html=1;fillColor=#f8cecc;strokeColor=#b85450;" parent="1" vertex="1">
          <mxGeometry x="1160" y="530" width="170" height="140" as="geometry" />
        </mxCell>
        <mxCell id="gNrCj74a_SLX_d9sAi6l-71" value="" style="edgeStyle=orthogonalEdgeStyle;rounded=0;orthogonalLoop=1;jettySize=auto;html=1;" edge="1" parent="1" source="hN9CqaOS5fhVVAMX-T8h-14" target="hN9CqaOS5fhVVAMX-T8h-13">
          <mxGeometry relative="1" as="geometry" />
        </mxCell>
        <mxCell id="hN9CqaOS5fhVVAMX-T8h-14" value="&lt;font style=&quot;font-size: 16px;&quot;&gt;Selected Candidate&lt;/font&gt;" style="rounded=1;whiteSpace=wrap;html=1;fillColor=#dae8fc;strokeColor=#6c8ebf;" parent="1" vertex="1">
          <mxGeometry x="900" y="570" width="220" height="60" as="geometry" />
        </mxCell>
        <mxCell id="hN9CqaOS5fhVVAMX-T8h-32" value="" style="edgeStyle=orthogonalEdgeStyle;rounded=0;orthogonalLoop=1;jettySize=auto;html=1;" parent="1" edge="1">
          <mxGeometry relative="1" as="geometry">
            <mxPoint x="147.5" y="1560" as="sourcePoint" />
            <mxPoint x="147.5" y="1580" as="targetPoint" />
          </mxGeometry>
        </mxCell>
        <mxCell id="hN9CqaOS5fhVVAMX-T8h-33" value="" style="edgeStyle=orthogonalEdgeStyle;rounded=0;orthogonalLoop=1;jettySize=auto;html=1;" parent="1" target="hN9CqaOS5fhVVAMX-T8h-17" edge="1">
          <mxGeometry relative="1" as="geometry">
            <mxPoint x="147.5" y="1640" as="sourcePoint" />
          </mxGeometry>
        </mxCell>
        <mxCell id="hN9CqaOS5fhVVAMX-T8h-17" value="&lt;font style=&quot;font-size: 16px;&quot;&gt;END&lt;/font&gt;" style="ellipse;whiteSpace=wrap;html=1;" parent="1" vertex="1">
          <mxGeometry x="87.5" y="1670" width="120" height="80" as="geometry" />
        </mxCell>
        <mxCell id="hN9CqaOS5fhVVAMX-T8h-34" value="Yes&lt;br&gt;" style="text;html=1;strokeColor=none;fillColor=none;align=center;verticalAlign=middle;whiteSpace=wrap;rounded=0;" parent="1" vertex="1">
          <mxGeometry x="-126.25" y="-20" width="60" height="30" as="geometry" />
        </mxCell>
        <mxCell id="hN9CqaOS5fhVVAMX-T8h-37" value="Yes&lt;br&gt;" style="text;html=1;strokeColor=none;fillColor=none;align=center;verticalAlign=middle;whiteSpace=wrap;rounded=0;" parent="1" vertex="1">
          <mxGeometry x="-126.25" y="160" width="60" height="30" as="geometry" />
        </mxCell>
        <mxCell id="hN9CqaOS5fhVVAMX-T8h-38" value="Yes&lt;br&gt;" style="text;html=1;strokeColor=none;fillColor=none;align=center;verticalAlign=middle;whiteSpace=wrap;rounded=0;" parent="1" vertex="1">
          <mxGeometry x="-126.25" y="250" width="60" height="30" as="geometry" />
        </mxCell>
        <mxCell id="hN9CqaOS5fhVVAMX-T8h-42" value="Yes&lt;br&gt;" style="text;html=1;strokeColor=none;fillColor=none;align=center;verticalAlign=middle;whiteSpace=wrap;rounded=0;" parent="1" vertex="1">
          <mxGeometry x="165" y="1220" width="60" height="30" as="geometry" />
        </mxCell>
        <mxCell id="hN9CqaOS5fhVVAMX-T8h-43" value="Yes&lt;br&gt;" style="text;html=1;strokeColor=none;fillColor=none;align=center;verticalAlign=middle;whiteSpace=wrap;rounded=0;" parent="1" vertex="1">
          <mxGeometry x="165" y="1370" width="60" height="30" as="geometry" />
        </mxCell>
        <mxCell id="gNrCj74a_SLX_d9sAi6l-72" value="" style="edgeStyle=orthogonalEdgeStyle;rounded=0;orthogonalLoop=1;jettySize=auto;html=1;" edge="1" parent="1" source="hN9CqaOS5fhVVAMX-T8h-44">
          <mxGeometry relative="1" as="geometry">
            <mxPoint x="195" y="1560" as="targetPoint" />
          </mxGeometry>
        </mxCell>
        <mxCell id="hN9CqaOS5fhVVAMX-T8h-44" value="Yes&lt;br&gt;" style="text;html=1;strokeColor=none;fillColor=none;align=center;verticalAlign=middle;whiteSpace=wrap;rounded=0;" parent="1" vertex="1">
          <mxGeometry x="165" y="1470" width="60" height="30" as="geometry" />
        </mxCell>
        <mxCell id="hN9CqaOS5fhVVAMX-T8h-46" value="Yes&lt;br&gt;" style="text;html=1;strokeColor=none;fillColor=none;align=center;verticalAlign=middle;whiteSpace=wrap;rounded=0;" parent="1" vertex="1">
          <mxGeometry x="165" y="1650" width="60" height="30" as="geometry" />
        </mxCell>
        <mxCell id="hN9CqaOS5fhVVAMX-T8h-47" value="No" style="text;html=1;strokeColor=none;fillColor=none;align=center;verticalAlign=middle;whiteSpace=wrap;rounded=0;" parent="1" vertex="1">
          <mxGeometry x="285" y="1270" width="60" height="30" as="geometry" />
        </mxCell>
        <mxCell id="gNrCj74a_SLX_d9sAi6l-32" value="Yes&lt;br&gt;" style="text;html=1;strokeColor=none;fillColor=none;align=center;verticalAlign=middle;whiteSpace=wrap;rounded=0;" vertex="1" parent="1">
          <mxGeometry x="-126.25" y="70" width="60" height="30" as="geometry" />
        </mxCell>
        <mxCell id="gNrCj74a_SLX_d9sAi6l-53" value="Yes&lt;br&gt;" style="text;html=1;strokeColor=none;fillColor=none;align=center;verticalAlign=middle;whiteSpace=wrap;rounded=0;" vertex="1" parent="1">
          <mxGeometry x="2.5" y="280" width="60" height="30" as="geometry" />
        </mxCell>
        <mxCell id="gNrCj74a_SLX_d9sAi6l-62" value="" style="edgeStyle=orthogonalEdgeStyle;rounded=0;orthogonalLoop=1;jettySize=auto;html=1;" edge="1" parent="1" source="gNrCj74a_SLX_d9sAi6l-55" target="gNrCj74a_SLX_d9sAi6l-57">
          <mxGeometry relative="1" as="geometry" />
        </mxCell>
        <mxCell id="gNrCj74a_SLX_d9sAi6l-55" value="&lt;font style=&quot;font-size: 16px;&quot;&gt;Conduct&amp;nbsp; Entrance Test.&lt;/font&gt;" style="rounded=1;whiteSpace=wrap;html=1;fillColor=#dae8fc;strokeColor=#6c8ebf;" vertex="1" parent="1">
          <mxGeometry x="65" y="440" width="260" height="60" as="geometry" />
        </mxCell>
        <mxCell id="gNrCj74a_SLX_d9sAi6l-61" value="" style="edgeStyle=orthogonalEdgeStyle;rounded=0;orthogonalLoop=1;jettySize=auto;html=1;" edge="1" parent="1" source="gNrCj74a_SLX_d9sAi6l-57" target="gNrCj74a_SLX_d9sAi6l-58">
          <mxGeometry relative="1" as="geometry" />
        </mxCell>
        <mxCell id="gNrCj74a_SLX_d9sAi6l-63" value="" style="edgeStyle=orthogonalEdgeStyle;rounded=0;orthogonalLoop=1;jettySize=auto;html=1;" edge="1" parent="1" source="gNrCj74a_SLX_d9sAi6l-57" target="hN9CqaOS5fhVVAMX-T8h-9">
          <mxGeometry relative="1" as="geometry" />
        </mxCell>
        <mxCell id="gNrCj74a_SLX_d9sAi6l-57" value="&lt;font style=&quot;font-size: 16px;&quot;&gt;Entrance test Result&lt;/font&gt;" style="rhombus;whiteSpace=wrap;html=1;fillColor=#f8cecc;strokeColor=#b85450;" vertex="1" parent="1">
          <mxGeometry x="100" y="540" width="190" height="120" as="geometry" />
        </mxCell>
        <mxCell id="gNrCj74a_SLX_d9sAi6l-58" value="&lt;font style=&quot;font-size: 16px;&quot;&gt;Failed&lt;/font&gt;" style="rounded=1;whiteSpace=wrap;html=1;fillColor=#dae8fc;strokeColor=#6c8ebf;" vertex="1" parent="1">
          <mxGeometry x="105" y="710" width="180" height="60" as="geometry" />
        </mxCell>
        <mxCell id="gNrCj74a_SLX_d9sAi6l-67" value="" style="edgeStyle=orthogonalEdgeStyle;rounded=0;orthogonalLoop=1;jettySize=auto;html=1;" edge="1" parent="1" source="gNrCj74a_SLX_d9sAi6l-64" target="gNrCj74a_SLX_d9sAi6l-65">
          <mxGeometry relative="1" as="geometry" />
        </mxCell>
        <mxCell id="gNrCj74a_SLX_d9sAi6l-70" value="" style="edgeStyle=orthogonalEdgeStyle;rounded=0;orthogonalLoop=1;jettySize=auto;html=1;" edge="1" parent="1" source="gNrCj74a_SLX_d9sAi6l-64" target="hN9CqaOS5fhVVAMX-T8h-14">
          <mxGeometry relative="1" as="geometry" />
        </mxCell>
        <mxCell id="gNrCj74a_SLX_d9sAi6l-64" value="&lt;font style=&quot;font-size: 16px;&quot;&gt;Interview with Interviewer&lt;/font&gt;" style="rhombus;whiteSpace=wrap;html=1;fillColor=#f8cecc;strokeColor=#b85450;" vertex="1" parent="1">
          <mxGeometry x="638" y="530" width="212.5" height="140" as="geometry" />
        </mxCell>
        <mxCell id="gNrCj74a_SLX_d9sAi6l-65" value="&lt;font style=&quot;font-size: 16px;&quot;&gt;Not qualified.&lt;/font&gt;" style="rounded=1;whiteSpace=wrap;html=1;fillColor=#dae8fc;strokeColor=#6c8ebf;" vertex="1" parent="1">
          <mxGeometry x="654.25" y="710" width="180" height="60" as="geometry" />
        </mxCell>
        <mxCell id="gNrCj74a_SLX_d9sAi6l-76" value="" style="edgeStyle=orthogonalEdgeStyle;rounded=0;orthogonalLoop=1;jettySize=auto;html=1;" edge="1" parent="1" source="gNrCj74a_SLX_d9sAi6l-73" target="gNrCj74a_SLX_d9sAi6l-74">
          <mxGeometry relative="1" as="geometry" />
        </mxCell>
        <mxCell id="gNrCj74a_SLX_d9sAi6l-73" value="&lt;font style=&quot;font-size: 16px;&quot;&gt;Offer Letter.&lt;/font&gt;" style="rounded=1;whiteSpace=wrap;html=1;fillColor=#dae8fc;strokeColor=#6c8ebf;" vertex="1" parent="1">
          <mxGeometry x="1360" y="570" width="170" height="60" as="geometry" />
        </mxCell>
        <mxCell id="gNrCj74a_SLX_d9sAi6l-78" value="" style="edgeStyle=orthogonalEdgeStyle;rounded=0;orthogonalLoop=1;jettySize=auto;html=1;" edge="1" parent="1" source="gNrCj74a_SLX_d9sAi6l-74" target="gNrCj74a_SLX_d9sAi6l-77">
          <mxGeometry relative="1" as="geometry" />
        </mxCell>
        <mxCell id="gNrCj74a_SLX_d9sAi6l-74" value="&lt;font style=&quot;font-size: 16px;&quot;&gt;Acceptance Letter.&lt;/font&gt;" style="rounded=1;whiteSpace=wrap;html=1;fillColor=#dae8fc;strokeColor=#6c8ebf;" vertex="1" parent="1">
          <mxGeometry x="1560" y="570" width="180" height="60" as="geometry" />
        </mxCell>
        <mxCell id="gNrCj74a_SLX_d9sAi6l-80" value="" style="edgeStyle=orthogonalEdgeStyle;rounded=0;orthogonalLoop=1;jettySize=auto;html=1;" edge="1" parent="1" source="gNrCj74a_SLX_d9sAi6l-77" target="gNrCj74a_SLX_d9sAi6l-79">
          <mxGeometry relative="1" as="geometry" />
        </mxCell>
        <mxCell id="gNrCj74a_SLX_d9sAi6l-82" style="edgeStyle=orthogonalEdgeStyle;rounded=0;orthogonalLoop=1;jettySize=auto;html=1;entryX=1;entryY=0.5;entryDx=0;entryDy=0;" edge="1" parent="1">
          <mxGeometry relative="1" as="geometry">
            <mxPoint x="1908.77" y="540" as="sourcePoint" />
            <mxPoint x="1.2699999999999996" y="223.75000000000023" as="targetPoint" />
            <Array as="points">
              <mxPoint x="1908.77" y="213.75" />
              <mxPoint x="1.7699999999999996" y="213.75" />
            </Array>
          </mxGeometry>
        </mxCell>
        <mxCell id="gNrCj74a_SLX_d9sAi6l-77" value="&lt;font style=&quot;font-size: 16px;&quot;&gt;Selected Candidate will join&lt;/font&gt;" style="rhombus;whiteSpace=wrap;html=1;fillColor=#f8cecc;strokeColor=#b85450;" vertex="1" parent="1">
          <mxGeometry x="1790" y="536.25" width="240" height="127.5" as="geometry" />
        </mxCell>
        <mxCell id="gNrCj74a_SLX_d9sAi6l-79" value="END" style="ellipse;whiteSpace=wrap;html=1;" vertex="1" parent="1">
          <mxGeometry x="2110" y="560" width="120" height="80" as="geometry" />
        </mxCell>
      </root>
    </mxGraphModel>
  </diagram>
</mxfile>
